<svg width="100%" height="100%" viewBox="0 0 31 31" fill="currentColor" xmlns="http://www.w3.org/2000/svg">
<path fill-rule="evenodd" clip-rule="evenodd" d="M7.75022 15.4998C7.75022 15.7567 7.85228 16.0031 8.03396 16.1848C8.21564 16.3664 8.46204 16.4685 8.71897 16.4685L19.9429 16.4685L15.7831 20.6264C15.693 20.7165 15.6216 20.8234 15.5728 20.9411C15.5241 21.0587 15.499 21.1849 15.499 21.3123C15.499 21.4396 15.5241 21.5658 15.5728 21.6835C15.6216 21.8011 15.693 21.9081 15.7831 21.9981C15.8732 22.0882 15.9801 22.1597 16.0978 22.2084C16.2155 22.2571 16.3416 22.2822 16.469 22.2822C16.5963 22.2822 16.7225 22.2571 16.8402 22.2084C16.9578 22.1597 17.0648 22.0882 17.1548 21.9981L22.9673 16.1856C23.0576 16.0956 23.1291 15.9887 23.178 15.871C23.2268 15.7534 23.252 15.6272 23.252 15.4998C23.252 15.3723 23.2268 15.2462 23.178 15.1285C23.1291 15.0108 23.0576 14.9039 22.9673 14.8139L17.1548 9.00138C16.9729 8.81948 16.7262 8.71728 16.469 8.71728C16.2117 8.71728 15.965 8.81948 15.7831 9.00138C15.6012 9.18329 15.499 9.43001 15.499 9.68726C15.499 9.94451 15.6012 10.1912 15.7831 10.3731L19.9429 14.531L8.71897 14.531C8.46204 14.531 8.21564 14.6331 8.03396 14.8147C7.85228 14.9964 7.75022 15.2428 7.75022 15.4998Z" fill="currentColor"/>
</svg>
